<mxfile host="app.diagrams.net" modified="2024-03-22T10:43:38.547Z" agent="Mozilla/5.0 (Windows NT 10.0; Win64; x64) AppleWebKit/537.36 (KHTML, like Gecko) Chrome/122.0.0.0 Safari/537.36" version="24.0.7" etag="kZlXBTpecdcryh15NofC" type="github">
  <diagram name="Page-1" id="Kx_ZAv3h6-Mh3C6Pe846">
    <mxGraphModel>
      <root>
        <mxCell id="0" />
        <mxCell id="1" parent="0" />
      </root>
    </mxGraphModel>
  </diagram>
</mxfile>
